<?xml version="1.0" encoding="utf-8"?>
<!-- Generator: Adobe Illustrator 25.0.0, SVG Export Plug-In . SVG Version: 6.00 Build 0)  -->
<svg version="1.1" id="图层_1" xmlns="http://www.w3.org/2000/svg" xmlns:xlink="http://www.w3.org/1999/xlink" x="0px" y="0px"
	 viewBox="0 0 20 20" style="enable-background:new 0 0 20 20;" xml:space="preserve">
<path class="st0" d="M8.6,12.5l-0.9,4.8l2.2,1.4l2.2-1.4l-0.9-4.8H8.6z M9.9,17.1l-0.7-0.5l0.5-2.8h0.4l0.5,2.8L9.9,17.1z M9.9,17.1
	"/>
<path class="st0" d="M19.2,19.1c0-4-2.5-7.3-6-8.6c1.6-1,2.6-2.8,2.6-4.8C15.8,2.5,13.2,0,10,0C6.8,0,4.3,2.5,4.3,5.7
	c0,2,1,3.8,2.6,4.8c-3.5,1.3-6,4.6-6,8.6c0,0.4,0.3,0.7,0.7,0.7c0.4,0,0.7-0.3,0.7-0.7c0-4.2,3.4-7.7,7.7-7.7c4.2,0,7.7,3.4,7.7,7.7
	h0c0,0,0,0,0,0.1c0,0.4,0.3,0.7,0.7,0.7C18.8,20,19.2,19.6,19.2,19.1C19.2,19.2,19.2,19.2,19.2,19.1L19.2,19.1L19.2,19.1z M5.8,5.7
	c0-2.4,1.9-4.3,4.3-4.3c2.4,0,4.3,1.9,4.3,4.3c0,2.4-1.9,4.3-4.3,4.3C7.7,10,5.8,8.1,5.8,5.7L5.8,5.7z M5.8,5.7"/>
</svg>
